<?xml version="1.0" encoding="UTF-8" standalone="no"?>
<!DOCTYPE svg PUBLIC "-//W3C//DTD SVG 1.1//EN" "http://www.w3.org/Graphics/SVG/1.1/DTD/svg11.dtd">
<svg width="100%" height="100%" viewBox="0 0 1215 475" version="1.1" xmlns="http://www.w3.org/2000/svg" xmlns:xlink="http://www.w3.org/1999/xlink" xml:space="preserve" style="fill-rule:evenodd;clip-rule:evenodd;stroke-linejoin:round;stroke-miterlimit:1.41421;">
    <g>
        <rect x="0" y="0" width="475" height="475"/>
        <g transform="matrix(1,0,0,1,-569,-128.227)">
            <path d="M1113.2,484.563L1113.2,501.267C1113.2,533.523 1129.33,551.955 1160.43,551.955C1191.54,551.955 1207.67,533.523 1207.67,501.267L1207.67,456.339C1207.67,426.675 1195.86,410.259 1172.53,410.259C1159.86,410.259 1150.64,415.443 1144.88,424.947L1147.48,376.851L1202.48,376.851L1202.48,348.051L1118.96,348.051L1113.2,464.979L1143.15,464.979L1143.15,458.931C1143.15,444.531 1149.49,439.059 1159.57,439.059C1169.65,439.059 1175.99,444.531 1175.99,458.931L1175.99,503.283C1175.99,517.683 1169.65,522.867 1159.57,522.867C1149.49,522.867 1143.15,517.683 1143.15,503.283L1143.15,484.563L1113.2,484.563Z" style="fill:white;fill-rule:nonzero;"/>
            <path d="M1337.56,395.859L1362.04,395.859L1362.04,549.651L1393.71,549.651L1393.71,348.051L1372.4,348.051C1367.51,361.587 1362.04,373.395 1337.56,373.395L1337.56,395.859Z" style="fill:white;fill-rule:nonzero;"/>
            <path d="M1540.88,395.859L1565.36,395.859L1565.36,549.651L1597.04,549.651L1597.04,348.051L1575.73,348.051C1570.84,361.587 1565.36,373.395 1540.88,373.395L1540.88,395.859Z" style="fill:white;fill-rule:nonzero;"/>
            <path d="M1627.86,513.075L1688.91,513.075L1688.91,549.651L1720.02,549.651L1720.02,513.075L1735,513.075L1735,484.275L1720.02,484.275L1720.02,348.051L1685.46,348.051L1627.86,484.275L1627.86,513.075ZM1656.95,484.275L1688.91,408.531L1688.91,484.275L1656.95,484.275Z" style="fill:white;fill-rule:nonzero;"/>
        </g>
        <g transform="matrix(1,0,0,1,-887,-128.227)">
            <path d="M1134.23,395.859L1158.71,395.859L1158.71,549.651L1190.39,549.651L1190.39,348.051L1169.08,348.051C1164.18,361.587 1158.71,373.395 1134.23,373.395L1134.23,395.859Z" style="fill:white;fill-rule:nonzero;"/>
            <path d="M1321.71,396.435C1321.71,364.179 1304.72,345.747 1273.62,345.747C1242.52,345.747 1225.52,364.179 1225.52,396.435L1225.52,433.299C1225.52,462.963 1237.33,479.379 1260.66,479.379C1274.77,479.379 1284.56,473.043 1290.04,461.523L1290.04,498.387C1290.04,517.683 1283.7,523.155 1272.47,523.155C1262.39,523.155 1256.05,517.683 1256.05,503.283L1256.05,496.083L1226.1,496.083L1226.1,501.267C1226.1,533.523 1242.23,551.955 1273.33,551.955C1306.16,551.955 1321.71,533.523 1321.71,499.539L1321.71,396.435ZM1273.62,450.579C1263.54,450.579 1257.2,445.107 1257.2,430.707L1257.2,394.419C1257.2,380.019 1263.54,374.835 1273.62,374.835C1283.7,374.835 1290.04,380.019 1290.04,394.419L1290.04,430.707C1290.04,445.107 1283.7,450.579 1273.62,450.579Z" style="fill:white;fill-rule:nonzero;"/>
        </g>
    </g>
</svg>
