<?xml version="1.0" encoding="UTF-8" standalone="no"?>
<!DOCTYPE svg PUBLIC "-//W3C//DTD SVG 1.1//EN" "http://www.w3.org/Graphics/SVG/1.1/DTD/svg11.dtd">
<svg width="100%" height="100%" viewBox="0 0 372 372" version="1.1" xmlns="http://www.w3.org/2000/svg" xmlns:xlink="http://www.w3.org/1999/xlink" xml:space="preserve" style="fill-rule:evenodd;clip-rule:evenodd;stroke-linejoin:round;stroke-miterlimit:1.41421;">
    <g transform="matrix(1,0,0,1,-1073.18,-237.651)">
        <path d="M1142,357.411L1172.6,357.411L1172.6,549.651L1212.2,549.651L1212.2,297.651L1185.56,297.651C1179.44,314.571 1172.6,329.331 1142,329.331L1142,357.411Z" style="fill:rgb(6,0,0);fill-rule:nonzero;"/>
        <path d="M1376.36,358.131C1376.36,317.811 1355.12,294.771 1316.24,294.771C1277.36,294.771 1256.12,317.811 1256.12,358.131L1256.12,404.211C1256.12,441.291 1270.88,461.811 1300.04,461.811C1317.68,461.811 1329.92,453.891 1336.76,439.491L1336.76,485.571C1336.76,509.691 1328.84,516.531 1314.8,516.531C1302.2,516.531 1294.28,509.691 1294.28,491.691L1294.28,482.691L1256.84,482.691L1256.84,489.171C1256.84,529.491 1277,552.531 1315.88,552.531C1356.92,552.531 1376.36,529.491 1376.36,487.011L1376.36,358.131ZM1316.24,425.811C1303.64,425.811 1295.72,418.971 1295.72,400.971L1295.72,355.611C1295.72,337.611 1303.64,331.131 1316.24,331.131C1328.84,331.131 1336.76,337.611 1336.76,355.611L1336.76,400.971C1336.76,418.971 1328.84,425.811 1316.24,425.811Z" style="fill:rgb(6,0,0);fill-rule:nonzero;"/>
    </g>
</svg>
