<?xml version="1.0" encoding="UTF-8" standalone="no"?>
<!DOCTYPE svg PUBLIC "-//W3C//DTD SVG 1.1//EN" "http://www.w3.org/Graphics/SVG/1.1/DTD/svg11.dtd">
<svg width="100%" height="100%" viewBox="0 0 475 475" version="1.1" xmlns="http://www.w3.org/2000/svg" xmlns:xlink="http://www.w3.org/1999/xlink" xml:space="preserve" style="fill-rule:evenodd;clip-rule:evenodd;stroke-linejoin:round;stroke-miterlimit:1.41421;">
    <rect x="0" y="0" width="475" height="475"/>
    <g transform="matrix(1,0,0,1,-887,-128.227)">
        <path d="M1134.23,395.859L1158.71,395.859L1158.71,549.651L1190.39,549.651L1190.39,348.051L1169.08,348.051C1164.18,361.587 1158.71,373.395 1134.23,373.395L1134.23,395.859Z" style="fill:white;fill-rule:nonzero;"/>
        <path d="M1321.71,396.435C1321.71,364.179 1304.72,345.747 1273.62,345.747C1242.52,345.747 1225.52,364.179 1225.52,396.435L1225.52,433.299C1225.52,462.963 1237.33,479.379 1260.66,479.379C1274.77,479.379 1284.56,473.043 1290.04,461.523L1290.04,498.387C1290.04,517.683 1283.7,523.155 1272.47,523.155C1262.39,523.155 1256.05,517.683 1256.05,503.283L1256.05,496.083L1226.1,496.083L1226.1,501.267C1226.1,533.523 1242.23,551.955 1273.33,551.955C1306.16,551.955 1321.71,533.523 1321.71,499.539L1321.71,396.435ZM1273.62,450.579C1263.54,450.579 1257.2,445.107 1257.2,430.707L1257.2,394.419C1257.2,380.019 1263.54,374.835 1273.62,374.835C1283.7,374.835 1290.04,380.019 1290.04,394.419L1290.04,430.707C1290.04,445.107 1283.7,450.579 1273.62,450.579Z" style="fill:white;fill-rule:nonzero;"/>
    </g>
</svg>
